<?xml version="1.0" encoding="utf-8"?>
<!-- Generator: Adobe Illustrator 22.1.0, SVG Export Plug-In . SVG Version: 6.00 Build 0)  -->
<svg version="1.1" id="Layer_1" xmlns="http://www.w3.org/2000/svg" xmlns:xlink="http://www.w3.org/1999/xlink" x="0px" y="0px"
	 viewBox="0 0 48 48" style="enable-background:new 0 0 48 48;" xml:space="preserve">
<style type="text/css">
	.st0{fill:#545454;}
</style>
<title>UX/UI</title>
<desc>Created with Sketch.</desc>
<g id="Website">
	<g id="Home" transform="translate(-298.000000, -1441.000000)">
		<path id="UX_x2F_UI" class="st0" d="M337.9,1485.1l4.2-4.2l1.3,5.5L337.9,1485.1z M323.6,1471.3l-1.6-1.6l-4.8-4.8l-1.6-1.6
			l-9.8-9.8l4.8-4.8l9.8,9.8l1.6,1.6l4.8,4.8l1.6,1.6l12.4,12.4l-4.8,4.8L323.6,1471.3z M307.9,1483.9l-3.8,1.6l-2.6-2.6l1.6-3.8
			l12.6-12.6l4.8,4.8L307.9,1483.9z M301,1448.7c-0.4-0.4-0.4-1.1,0-1.6l3.2-3.2c0.4-0.4,1.1-0.4,1.6,0l3.2,3.2l-4.8,4.8L301,1448.7
			z M335.4,1446.8l4.8,4.8l-11.8,11.8l-4.8-4.8L335.4,1446.8z M341.4,1443.3C341.4,1443.2,341.4,1443.2,341.4,1443.3l2.4,2.4
			c0,0,0,0,0,0l-3.2,3.2l-2.4-2.4L341.4,1443.3z M344,1479l-14-14l9.4-9.4l0.9,0.9c0.4,0.4,0.4,1.2,0,1.6l-4.4,4.4
			c-0.4,0.4-0.4,1.2,0,1.6c0.4,0.4,1.2,0.4,1.6,0l4.4-4.4c1.3-1.3,1.3-3.5,0-4.8l-0.9-0.9l0.8-0.8l1.6-1.6l-1.2-1.2l3.2-3.2
			c0.9-0.9,0.9-2.3,0-3.2l-2.4-2.4c-0.9-0.9-2.3-0.9-3.2,0l-3.2,3.2l-1.2-1.2l-1.6,1.6h0v0L322,1457l-14.6-14.6
			c-1.3-1.3-3.4-1.3-4.8,0l-3.2,3.2c-1.3,1.3-1.3,3.5,0,4.8l3.2,3.2l0.3,0.3l1.3,1.3l9.8,9.8l-12.9,12.9l-2.4,5.6l1.6,1.6l-2.4,2.4
			l1.6,1.6l2.4-2.4l1.6,1.6l5.6-2.4l12.9-12.9l12.4,12.4l1.6,1.6l8.2,1.9c1.2,0.3,2-0.5,1.7-1.7L344,1479z"/>
	</g>
</g>
</svg>
