<?xml version="1.0" encoding="utf-8"?>
<!-- Generator: Adobe Illustrator 22.1.0, SVG Export Plug-In . SVG Version: 6.00 Build 0)  -->
<svg version="1.1" id="Layer_1" xmlns="http://www.w3.org/2000/svg" xmlns:xlink="http://www.w3.org/1999/xlink" x="0px" y="0px"
	 viewBox="0 0 50 48" style="enable-background:new 0 0 50 48;" xml:space="preserve">
<style type="text/css">
	.st0{fill:#545454;}
</style>
<g>
	<path class="st0" d="M28.5,16.9c-0.4-0.2-0.8-0.1-1.1,0.2c-0.2,0.1-0.4,0.3-0.4,0.5L26.8,18l-4,10.3l-3.6,9.3
		c-0.2,0.6,0.1,1.3,0.7,1.6s1.3-0.1,1.5-0.7l1.4-3.6L27.4,23l1.8-4.6c0.1-0.1,0.1-0.3,0.1-0.4C29.2,17.5,29,17.1,28.5,16.9z"/>
	<path class="st0" d="M33.7,20.8c-0.5,0.5-0.5,1.2,0,1.7l1.5,1.5l3.5,3.6l-3.5,3.6l-1.5,1.5c-0.5,0.5-0.5,1.2,0,1.7
		c0.4,0.4,1,0.4,1.5,0.1c0.1,0,0.1-0.1,0.2-0.1l5.9-5.9c0.5-0.5,0.5-1.2,0-1.7l-5.9-5.9c-0.1-0.1-0.1-0.1-0.2-0.1
		C34.7,20.3,34.1,20.3,33.7,20.8z"/>
	<path class="st0" d="M16.5,22.4c0.5-0.5,0.5-1.2,0-1.7c-0.5-0.5-1.2-0.5-1.7,0l-1.7,1.7l-4.2,4.2c-0.5,0.5-0.5,1.2,0,1.7l4.2,4.2
		l1.7,1.7c0.5,0.5,1.2,0.5,1.7,0c0.5-0.5,0.5-1.2,0-1.7l-3.4-3.4l-1.7-1.7l1.7-1.7L16.5,22.4z"/>
	<path class="st0" d="M50,3.6c0-2-1.6-3.6-3.6-3.6H20.2h-3.6h-3.6H6H3.6C3.2,0,2.8,0.1,2.4,0.2C1,0.7,0,2,0,3.6c0,0,0,0,0,0v9.6V18
		v26.4c0,2,1.6,3.6,3.6,3.6h42.8c2,0,3.6-1.6,3.6-3.6V18L50,3.6C50,3.6,50,3.6,50,3.6z M47.6,18v26.4c0,0.7-0.5,1.2-1.2,1.2H3.6
		c-0.7,0-1.2-0.5-1.2-1.2V18v-4.8V12H6h7.1h3.6h3.6h15h12.4V18z M47.6,9.6H20.2h-3.6h-3.6H6H2.4v-6c0,0,0,0,0,0
		c0-0.7,0.5-1.2,1.2-1.2H6h7.1h3.6h3.6h26.2c0.7,0,1.2,0.5,1.2,1.2c0,0,0,0,0,0V9.6z"/>
	<path class="st0" d="M13.1,4.8c-0.7,0-1.2,0.5-1.2,1.2s0.5,1.2,1.2,1.2c0.7,0,1.2-0.5,1.2-1.2S13.8,4.8,13.1,4.8z"/>
	<ellipse class="st0" cx="6" cy="6" rx="1.2" ry="1.2"/>
	<ellipse class="st0" cx="9.5" cy="6" rx="1.2" ry="1.2"/>
</g>
</svg>
